<svg xmlns="http://www.w3.org/2000/svg" viewBox="0 0 256 256">
  <defs>
    <linearGradient id="g" x1="0" x2="1" y1="0" y2="1">
      <stop offset="0%" stop-color="#06b6d4"/>
      <stop offset="100%" stop-color="#3b82f6"/>
    </linearGradient>
  </defs>
  <rect width="256" height="256" rx="56" fill="url(#g)"/>
  <g fill="#fff">
    <path d="M72 132c0-33 27-60 60-60s60 27 60 60-27 60-60 60-60-27-60-60zm24 0a36 36 0 1 0 72 0 36 36 0 0 0-72 0z"/>
    <path d="M86 172h84c3.3 0 6 2.7 6 6s-2.7 6-6 6H86c-3.3 0-6-2.7-6-6s2.7-6 6-6z"/>
  </g>
</svg>

